<svg data-v-0dd9719b="" version="1.0" xmlns="http://www.w3.org/2000/svg" xmlns:xlink="http://www.w3.org/1999/xlink" width="100%" height="100%" viewBox="0 0 340.000000 250.000000" preserveAspectRatio="xMidYMid meet" color-interpolation-filters="sRGB" style="margin: auto;"> <rect data-v-0dd9719b="" x="0" y="0" width="100%" height="100%" fill="#ffffff" fill-opacity="1" class="background"></rect> <rect data-v-0dd9719b="" x="0" y="0" width="100%" height="100%" fill="url(#watermark)" fill-opacity="1" class="watermarklayer"></rect> <g data-v-0dd9719b="" fill="#7f79f7" class="icon-text-wrapper icon-svg-group iconsvg" transform="translate(49.06499481201172,94.94560241699219)"><g class="iconsvg-imagesvg" transform="translate(0,0)"><g><rect fill="#7f79f7" fill-opacity="0" stroke-width="2" x="0" y="0" width="60" height="60.1087969224296" class="image-rect"></rect> <svg filter="url(#colors9801359537)" x="0" y="0" width="60" height="60.1087969224296" filtersec="colorsf1324533413" class="image-svg-svg primary" style="overflow: visible;"><svg xmlns="http://www.w3.org/2000/svg" viewBox="-0.6000000000000001 -0.6000000000000001 59.1 59.2"><path d="M51 34.4L28.9 12.3 12.3 29l16.6 16.6L51 23.5l5.5 5.5-27.6 27.6L1.4 29 29 1.4l13.9 13.9-22 22.2" fill="none" stroke="#282828" stroke-width="2" stroke-miterlimit="10"></path></svg></svg> <defs><filter id="colors9801359537"><feColorMatrix type="matrix" values="0 0 0 0 0.19921875  0 0 0 0 0.19921875  0 0 0 0 0.19921875  0 0 0 1 0" class="icon-fecolormatrix"></feColorMatrix></filter> <filter id="colorsf1324533413"><feColorMatrix type="matrix" values="0 0 0 0 0.99609375  0 0 0 0 0.99609375  0 0 0 0 0.99609375  0 0 0 1 0" class="icon-fecolormatrix"></feColorMatrix></filter> <filter id="colorsb8930100498"><feColorMatrix type="matrix" values="0 0 0 0 0  0 0 0 0 0  0 0 0 0 0  0 0 0 1 0" class="icon-fecolormatrix"></feColorMatrix></filter></defs></g></g> <g transform="translate(67,2.5781478881835938)"><g data-gra="path-name" fill-rule="" class="tp-name iconsvg-namesvg" transform="translate(0,0)"><g transform="scale(1)"><g><path d="M43.02 0.49Q38.97 1.84 35.46 4.54L35.46 4.54 33.8 1.89 4.46 2.97Q4.14 0.09 3.8-1.48 3.46-3.06 2.43-5L2.43-5Q4.81-5.54 7.69-7.85 10.57-10.17 13.41-14.4L13.41-14.4 2.43-14.4 2.43-22.5 42.8-22.5 42.8-14.4 32.22-14.4 35.41-10.04Q41.13-2.43 43.02 0.49L43.02 0.49ZM28.44-6.03Q26.82-8.32 24.75-10.8L24.75-10.8 31.27-14.4 23.36-14.4Q19.93-9.13 16.34-5.54L16.34-5.54 28.44-6.03ZM5.31-26.41L5.31-34.52 40.09-34.52 40.09-26.41 5.31-26.41ZM71.46-25.02L86.53-25.02 86.53-3.69Q86.53 0.22 85.21 1.87 83.88 3.51 81.63 4L81.63 4Q80.41 4.23 77.13 4.23L77.13 4.23 74.7 4.23Q74.7 2.38 74.36 0.83 74.03-0.72 73.08-2.75L73.08-2.75 74.92-2.75Q75.91-2.75 76.68-2.97L76.68-2.97 71.46-2.97 71.46 3.78 63.36 3.78 63.36-2.97 56.97-2.97 56.97-8.96 63.36-8.96 63.36-9.99 57.2-9.99 57.2-15.43 58.86-15.43 57.64-17.59 59.49-18.13 56.52-18.13 56.52 4.23 48.42 4.23 48.42-25.02 63.36-25.02 63.36-26.28 47.43-26.28 47.43-33.48 63.36-33.48 63.36-35.46 71.46-35.46 71.46-33.48 87.61-33.48 87.61-26.28 71.46-26.28 71.46-25.02ZM77.94-3.92Q78.25-4.37 78.34-5.08 78.44-5.8 78.44-6.97L78.44-6.97 78.44-8.82 78.44-18.13 73.71-18.13 77.13-17.14 76.14-15.43 77.67-15.43 77.67-9.99 71.46-9.99 71.46-8.96 77.94-8.96 77.94-3.92ZM68.13-15.43L69.97-18.13 65.11-18.13 66.96-15.43 68.13-15.43ZM116.41-27.63Q115.78-26.05 115.56-24.88L115.56-24.88 128.88-24.88 128.88 4.18 120.78 4.18 120.78 2.88 104.13 2.88 104.13 4.18 96.03 4.18 96.03-24.88 106.56-24.88Q106.83-25.96 107.28-27.63L107.28-27.63 92.43-27.63 92.43-34.78 132.66-34.78 132.66-27.63 116.41-27.63ZM104.13-17.91L104.13-14.71 120.78-14.71 120.78-17.91 104.13-17.91ZM120.78-7.88L104.13-7.88 104.13-4.27 120.78-4.27 120.78-7.88ZM177.3-25.74Q174.87-20.97 169.97-16.34L169.97-16.34 177.07-16.34 177.07 4.27 168.97 4.27 168.97 3.28 164.25 3.28 164.25 4.27 156.15 4.27 156.15-6.66 154.75-6.03Q154.31-7.11 154.03-7.6L154.03-7.6 149.31-7.6 149.31-4.68 140.13-2.52Q141.75-4.27 141.75-7.6L141.75-7.6 137.7-7.6 137.7-14.98 141.75-14.98 141.75-16.7 138.47-16.7 138.47-23.04Q137.34-23.76 136.57-24.03L136.57-24.03Q137.88-26.1 138.96-28.71 140.04-31.32 141.3-35.28L141.3-35.28 149.58-35.28 148.63-32.67 154.53-32.67 154.53-26.32Q158.13-30.42 160.51-35.23L160.51-35.23 169.2-35.23Q168.88-34.42 168.16-32.89L168.16-32.89 177.3-32.89 177.3-25.74ZM162.81-24.61L163.57-24.03Q165.69-22.41 165.87-22.23L165.87-22.23Q163.35-20.79 162.04-18.63L162.04-18.63Q166.28-22 168.93-25.74L168.93-25.74 163.71-25.74 162.81-24.61ZM145.03-23.8L152.01-23.8Q153.04-24.75 153.63-25.38L153.63-25.38 145.71-25.38 145.03-23.8ZM154.17-13.81Q157.19-15.16 160.16-17.28L160.16-17.28 157.86-19.13 156.56-17.86Q155.2-19.89 153.18-21.42L153.18-21.42 153.18-16.7 149.31-16.7 149.31-14.98 154.17-14.98 154.17-13.81ZM141.93 4.41Q141.97 2.79 141.41 0.47 140.85-1.84 140.13-2.52L140.13-2.52 153.36-5.58 154.62 1.8 141.93 4.41ZM168.97-9.18L164.25-9.18 164.25-4.32 168.97-4.32 168.97-9.18Z" transform="translate(-2.430000066757202, 35.459999084472656)"></path></g> <!----> <!----> <!----> <!----> <!----> <!----> <!----></g></g> <g data-gra="path-slogan" fill-rule="" class="tp-slogan iconsvg-slogansvg" fill="#7f79f7" transform="translate(35.850006103515625,46)"><!----> <!----> <g transform="scale(1, 1)"><g transform="scale(1)"><path d="M7.83-8.58L4.59-3.47L4.59 0L3.42 0L3.42-3.47L0.19-8.58L1.55-8.58L3.98-4.45L6.47-8.58L7.83-8.58ZM14.53-3.19L14.53-8.58L15.70-8.58L15.70-3.05Q15.56 0.05 12.19 0.14L12.19 0.14Q9.05 0.05 8.91-2.86L8.91-2.86L8.91-8.58L10.08-8.58L10.08-3.19Q10.13-0.84 12.23-0.80L12.23-0.80Q14.53-0.84 14.53-3.19L14.53-3.19ZM18.89-8.58L23.20-1.64L23.20-8.58L24.33-8.58L24.33 0L23.02 0L18.66-6.94L18.61-6.94L18.61 0L17.48 0L17.48-8.58L18.89-8.58ZM27.52-8.58L31.83-1.64L31.83-8.58L32.95-8.58L32.95 0L31.64 0L27.28-6.94L27.23-6.94L27.23 0L26.11 0L26.11-8.58L27.52-8.58ZM40.41 0L39.56-2.48L36.09-2.48L35.20 0L34.03 0L37.27-8.58L38.58-8.58L41.67 0L40.41 0ZM37.83-7.31L36.47-3.52L39.14-3.52L37.88-7.31L37.83-7.31ZM44.11-8.58L48.42-1.64L48.42-8.58L49.55-8.58L49.55 0L48.23 0L43.88-6.94L43.83-6.94L43.83 0L42.70 0L42.70-8.58L44.11-8.58ZM57.89-7.64L55.83-7.64L55.83-4.97L57.89-4.97Q59.72-4.92 59.67-6.38L59.67-6.38Q59.67-7.64 57.89-7.64L57.89-7.64ZM58.36 0L54.66 0L54.66-8.58L58.45-8.58Q60.75-8.48 60.84-6.42L60.84-6.42Q60.84-5.16 59.72-4.64L59.72-4.64Q61.31-4.08 61.31-2.53L61.31-2.53Q61.17-0.09 58.36 0L58.36 0ZM58.08-3.98L55.83-3.98L55.83-0.98L58.31-0.98Q60.09-1.03 60.14-2.53L60.14-2.53Q60.14-3.98 58.08-3.98L58.08-3.98ZM68.30 0L67.45-2.48L63.98-2.48L63.09 0L61.92 0L65.16-8.58L66.47-8.58L69.56 0L68.30 0ZM65.72-7.31L64.36-3.52L67.03-3.52L65.77-7.31L65.72-7.31ZM70.78-8.58L71.95-8.58L71.95 0L70.78 0L70.78-8.58ZM82.17-8.58L82.17 0L81.05 0L81.05-5.06Q81.05-5.77 81.05-7.22L81.05-7.22L78.61 0L77.44 0L75.05-7.22L75-7.22Q75-6.70 75.05-5.67L75.05-5.67Q75.05-5.16 75.05-5.06L75.05-5.06L75.05 0L73.88 0L73.88-8.58L75.56-8.58L78.05-1.31L80.48-8.58L82.17-8.58ZM84.05-8.58L85.22-8.58L85.22 0L84.05 0L84.05-8.58ZM88.59-8.58L92.91-1.64L92.91-8.58L94.03-8.58L94.03 0L92.72 0L88.36-6.94L88.31-6.94L88.31 0L87.19 0L87.19-8.58L88.59-8.58ZM102.23-3.61L99.61-3.61L99.61-4.59L103.36-4.59L103.36 0L102.61 0L102.33-1.08Q101.34 0.09 99.52 0.14L99.52 0.14Q97.78 0.14 96.84-0.75L96.84-0.75Q95.44-2.06 95.48-4.36L95.48-4.36Q95.81-8.63 99.56-8.81L99.56-8.81Q102.75-8.63 103.22-6L103.22-6L102.09-6Q101.63-7.78 99.52-7.83L99.52-7.83Q96.84-7.64 96.70-4.31L96.70-4.31Q96.70-0.75 99.56-0.75L99.56-0.75Q100.59-0.75 101.34-1.31L101.34-1.31Q102.28-2.06 102.23-3.61L102.23-3.61Z" transform="translate(-0.1875, 8.8125)"></path></g></g></g></g></g><defs v-gra="od"></defs></svg>